<svg
                  width="280"
                  height="52"
                  viewBox="0 0 280 52"
                  fill="none"
                  xmlns="http://www.w3.org/2000/svg"
                >
                  <path
                    d="M29.132 26H20.204V24.956C20.684 24.764 21.164 24.608 21.644 24.488C22.124 24.344 22.616 24.212 23.12 24.092V7.892L23.264 3.68H22.976L21.788 7.532L14.408 26H13.472L6.452 7.532L5.156 3.32H4.832L4.868 7.892V24.092C5.324 24.188 5.78 24.308 6.236 24.452C6.692 24.596 7.148 24.764 7.604 24.956V26H0.08V24.956C0.536 24.764 1.004 24.596 1.484 24.452C1.988 24.284 2.492 24.152 2.996 24.056V2.744C2.492 2.648 1.988 2.528 1.484 2.384C1.004 2.216 0.524 2.036 0.044 1.844V0.799998H7.424L13.688 17.252L14.912 20.96H14.948L16.172 17.18L22.652 0.799998H29.168V1.844C28.736 2.036 28.292 2.216 27.836 2.384C27.38 2.528 26.912 2.648 26.432 2.744V24.128C26.936 24.224 27.404 24.344 27.836 24.488C28.292 24.608 28.724 24.764 29.132 24.956V26ZM48.3268 0.799998C48.3028 1.76 48.2548 2.732 48.1828 3.716C48.1348 4.676 48.0508 5.648 47.9308 6.632H46.9948L45.5188 2.672H37.6708V12.212H43.5388L44.9428 9.548H45.8428C45.9868 11.924 45.9868 14.348 45.8428 16.82H44.9428L43.5388 14.084H37.6708V24.128H45.9508L47.7148 19.808H48.6148C48.7828 20.816 48.9028 21.836 48.9748 22.868C49.0468 23.9 49.0588 24.944 49.0108 26H31.2628V24.956C32.1028 24.572 33.0868 24.284 34.2148 24.092V2.744C33.7348 2.648 33.2428 2.528 32.7388 2.384C32.2348 2.216 31.7428 2.036 31.2628 1.844V0.799998H48.3268ZM62.1159 26H52.8999V24.956C53.8359 24.524 54.7959 24.236 55.7799 24.092V2.744C55.2999 2.648 54.8199 2.528 54.3399 2.384C53.8599 2.216 53.3799 2.036 52.8999 1.844V0.799998H62.1159V1.844C61.6839 2.036 61.2159 2.216 60.7119 2.384C60.2079 2.528 59.7159 2.648 59.2359 2.744V24.092C59.7399 24.188 60.2439 24.308 60.7479 24.452C61.2519 24.596 61.7079 24.764 62.1159 24.956V26ZM81.3601 0.799998H89.1361V1.844C88.1281 2.516 87.1441 2.996 86.1841 3.284V26.432H84.1321L71.0641 6.596L69.6601 3.788H69.5521L69.8761 6.596V23.696C70.8601 23.96 71.7841 24.38 72.6481 24.956V26H64.8721V24.956C65.3041 24.692 65.7601 24.464 66.2401 24.272C66.7441 24.056 67.2721 23.864 67.8241 23.696V3.068C67.3441 2.876 66.8641 2.672 66.3841 2.456C65.9281 2.24 65.4961 2.024 65.0881 1.808V0.799998H71.1721L82.5121 17.9L84.1681 20.996H84.3121L84.1321 17.9V3.284C83.6281 3.068 83.1361 2.84 82.6561 2.6C82.2001 2.36 81.7681 2.108 81.3601 1.844V0.799998ZM108.303 0.799998C108.279 1.76 108.231 2.732 108.159 3.716C108.111 4.676 108.027 5.648 107.907 6.632H106.971L105.495 2.672H97.6473V12.212H103.515L104.919 9.548H105.819C105.963 11.924 105.963 14.348 105.819 16.82H104.919L103.515 14.084H97.6473V24.128H105.927L107.691 19.808H108.591C108.759 20.816 108.879 21.836 108.951 22.868C109.023 23.9 109.035 24.944 108.987 26H91.2393V24.956C92.0793 24.572 93.0633 24.284 94.1913 24.092V2.744C93.7113 2.648 93.2193 2.528 92.7153 2.384C92.2113 2.216 91.7193 2.036 91.2393 1.844V0.799998H108.303Z"
                    fill="white"
                  />
                  <path
                    d="M122.02 23.588C122.668 23.684 123.304 23.828 123.928 24.02C124.576 24.188 125.152 24.392 125.656 24.632V26H113.668V24.632C114.124 24.368 114.604 24.152 115.108 23.984C115.636 23.816 116.14 23.684 116.62 23.588V3.212C116.068 3.116 115.54 2.984 115.036 2.816C114.532 2.624 114.076 2.408 113.668 2.168V0.799998H118.204C119.164 0.799998 120.256 0.751998 121.48 0.655998C122.728 0.559999 123.868 0.512 124.9 0.512C126.172 0.512 127.408 0.644 128.608 0.907999C129.832 1.148 130.912 1.568 131.848 2.168C132.808 2.768 133.576 3.572 134.152 4.58C134.728 5.564 135.016 6.8 135.016 8.288C135.016 9.704 134.728 10.928 134.152 11.96C133.6 12.992 132.856 13.844 131.92 14.516C130.984 15.188 129.904 15.692 128.68 16.028C127.456 16.34 126.196 16.496 124.9 16.496C124.78 16.496 124.588 16.496 124.324 16.496C124.06 16.496 123.772 16.496 123.46 16.496C123.172 16.472 122.884 16.46 122.596 16.46C122.332 16.436 122.14 16.412 122.02 16.388V23.588ZM123.964 2.852C123.484 2.852 123.1 2.876 122.812 2.924C122.548 2.948 122.284 2.996 122.02 3.068V14.012C122.236 14.084 122.56 14.132 122.992 14.156C123.424 14.156 123.772 14.156 124.036 14.156C124.684 14.156 125.308 14.048 125.908 13.832C126.508 13.616 127.036 13.28 127.492 12.824C127.972 12.368 128.356 11.78 128.644 11.06C128.932 10.34 129.076 9.476 129.076 8.468C129.076 6.548 128.608 5.132 127.672 4.22C126.736 3.308 125.5 2.852 123.964 2.852ZM141.774 26H132.882V24.632C133.266 24.392 133.674 24.188 134.106 24.02C134.562 23.828 135.006 23.684 135.438 23.588L144.726 0.368H147.39L156.426 23.588C156.906 23.684 157.386 23.828 157.866 24.02C158.346 24.188 158.766 24.392 159.126 24.632V26H147.858V24.632C148.314 24.416 148.806 24.212 149.334 24.02C149.862 23.828 150.366 23.684 150.846 23.588L148.758 17.864H140.766L138.642 23.588C139.746 23.732 140.79 24.08 141.774 24.632V26ZM141.63 15.524H148.002L145.662 8.648L144.978 5.552H144.906L144.114 8.72L141.63 15.524ZM168.181 23.588C168.733 23.708 169.225 23.864 169.657 24.056C170.089 24.248 170.509 24.44 170.917 24.632V26H159.829V24.632C160.357 24.344 160.861 24.128 161.341 23.984C161.821 23.816 162.301 23.684 162.781 23.588V3.212C161.581 2.948 160.597 2.6 159.829 2.168V0.799998H163.645C164.125 0.799998 164.665 0.787998 165.265 0.763999C165.889 0.739999 166.537 0.715999 167.209 0.692C167.881 0.643999 168.565 0.607999 169.261 0.583999C169.957 0.536 170.629 0.512 171.277 0.512C172.597 0.512 173.809 0.667999 174.913 0.979998C176.041 1.268 177.001 1.712 177.793 2.312C178.609 2.912 179.233 3.668 179.665 4.58C180.121 5.468 180.349 6.512 180.349 7.712C180.349 9.44 179.929 10.856 179.089 11.96C178.249 13.064 177.097 13.892 175.633 14.444C176.593 15.956 177.613 17.504 178.693 19.088C179.773 20.648 180.913 22.16 182.113 23.624L183.841 24.776V26H177.829L176.281 24.812C175.177 23.492 174.193 21.968 173.329 20.24C172.489 18.488 171.745 16.772 171.097 15.092H168.181V23.588ZM169.981 2.852C169.237 2.852 168.637 2.924 168.181 3.068V13.112H170.305C171.529 13.112 172.573 12.68 173.437 11.816C174.301 10.928 174.733 9.62 174.733 7.892C174.733 7.004 174.613 6.248 174.373 5.624C174.133 4.976 173.797 4.448 173.365 4.04C172.933 3.632 172.429 3.332 171.853 3.14C171.277 2.948 170.653 2.852 169.981 2.852ZM200.246 26H187.862V24.632C188.342 24.44 188.882 24.248 189.482 24.056C190.106 23.84 190.73 23.684 191.354 23.588V3.14H187.178L184.874 9.296H183.398C183.302 8.816 183.206 8.204 183.11 7.46C183.014 6.716 182.93 5.948 182.858 5.156C182.786 4.364 182.726 3.584 182.678 2.816C182.63 2.024 182.606 1.352 182.606 0.799998H205.502C205.502 1.376 205.478 2.048 205.43 2.816C205.382 3.584 205.322 4.364 205.25 5.156C205.178 5.948 205.094 6.716 204.998 7.46C204.902 8.18 204.806 8.792 204.71 9.296H203.234L200.93 3.14H196.754V23.588C197.378 23.708 197.99 23.852 198.59 24.02C199.214 24.188 199.766 24.392 200.246 24.632V26ZM223.682 0.799998H232.61V2.168C232.154 2.528 231.65 2.852 231.098 3.14C230.546 3.404 230.03 3.608 229.55 3.752V26.432H226.49L213.782 8.072L212.342 5.3H212.234L212.558 8.18V23.192C213.038 23.312 213.566 23.516 214.142 23.804C214.742 24.068 215.246 24.344 215.654 24.632V26H206.762V24.632C207.194 24.344 207.662 24.08 208.166 23.84C208.694 23.576 209.234 23.36 209.786 23.192V3.536C209.306 3.344 208.826 3.128 208.346 2.888C207.866 2.648 207.434 2.396 207.05 2.132V0.799998H214.826L225.158 15.776L226.814 18.872H226.958L226.778 15.776V3.752C226.202 3.56 225.638 3.332 225.086 3.068C224.558 2.78 224.09 2.48 223.682 2.168V0.799998ZM252.979 0.799998C252.931 1.88 252.847 2.996 252.727 4.148C252.607 5.3 252.451 6.38 252.259 7.388H250.783L249.127 3.14H242.395V11.96H246.787L248.371 9.188H249.523C249.643 10.364 249.703 11.672 249.703 13.112C249.703 14.552 249.643 15.896 249.523 17.144H248.371L246.787 14.3H242.395V23.66H249.415L251.323 19.088H252.799C252.895 19.544 252.991 20.06 253.087 20.636C253.183 21.212 253.255 21.812 253.303 22.436C253.375 23.036 253.423 23.648 253.447 24.272C253.495 24.896 253.519 25.472 253.519 26H234.043V24.632C234.451 24.416 234.907 24.212 235.411 24.02C235.915 23.828 236.443 23.684 236.995 23.588V3.212C236.515 3.116 235.999 2.984 235.447 2.816C234.919 2.624 234.451 2.408 234.043 2.168V0.799998H252.979ZM264.122 23.588C264.674 23.708 265.166 23.864 265.598 24.056C266.03 24.248 266.45 24.44 266.858 24.632V26H255.77V24.632C256.298 24.344 256.802 24.128 257.282 23.984C257.762 23.816 258.242 23.684 258.722 23.588V3.212C257.522 2.948 256.538 2.6 255.77 2.168V0.799998H259.586C260.066 0.799998 260.606 0.787998 261.206 0.763999C261.83 0.739999 262.478 0.715999 263.15 0.692C263.822 0.643999 264.506 0.607999 265.202 0.583999C265.898 0.536 266.57 0.512 267.218 0.512C268.538 0.512 269.75 0.667999 270.854 0.979998C271.982 1.268 272.942 1.712 273.734 2.312C274.55 2.912 275.174 3.668 275.606 4.58C276.062 5.468 276.29 6.512 276.29 7.712C276.29 9.44 275.87 10.856 275.03 11.96C274.19 13.064 273.038 13.892 271.574 14.444C272.534 15.956 273.554 17.504 274.634 19.088C275.714 20.648 276.854 22.16 278.054 23.624L279.782 24.776V26H273.77L272.222 24.812C271.118 23.492 270.134 21.968 269.27 20.24C268.43 18.488 267.686 16.772 267.038 15.092H264.122V23.588ZM265.922 2.852C265.178 2.852 264.578 2.924 264.122 3.068V13.112H266.246C267.47 13.112 268.514 12.68 269.378 11.816C270.242 10.928 270.674 9.62 270.674 7.892C270.674 7.004 270.554 6.248 270.314 5.624C270.074 4.976 269.738 4.448 269.306 4.04C268.874 3.632 268.37 3.332 267.794 3.14C267.218 2.948 266.594 2.852 265.922 2.852Z"
                    fill="#D5BA77"
                  />
                  <path
                    d="M8.766 38.4H12.654V38.922C12.15 39.258 11.658 39.498 11.178 39.642V51.216H10.152L3.618 41.298L2.916 39.894H2.862L3.024 41.298V49.848C3.516 49.98 3.978 50.19 4.41 50.478V51H0.522V50.478C0.738 50.346 0.966 50.232 1.206 50.136C1.458 50.028 1.722 49.932 1.998 49.848V39.534C1.758 39.438 1.518 39.336 1.278 39.228C1.05 39.12 0.834 39.012 0.63 38.904V38.4H3.672L9.342 46.95L10.17 48.498H10.242L10.152 46.95V39.642C9.9 39.534 9.654 39.42 9.414 39.3C9.186 39.18 8.97 39.054 8.766 38.922V38.4ZM23.1376 38.4C23.1256 38.88 23.1016 39.366 23.0656 39.858C23.0416 40.338 22.9996 40.824 22.9396 41.316H22.4716L21.7336 39.336H17.8096V44.106H20.7436L21.4456 42.774H21.8956C21.9676 43.962 21.9676 45.174 21.8956 46.41H21.4456L20.7436 45.042H17.8096V50.064H21.9496L22.8316 47.904H23.2816C23.3656 48.408 23.4256 48.918 23.4616 49.434C23.4976 49.95 23.5036 50.472 23.4796 51H14.6056V50.478C15.0256 50.286 15.5176 50.142 16.0816 50.046V39.372C15.8416 39.324 15.5956 39.264 15.3436 39.192C15.0916 39.108 14.8456 39.018 14.6056 38.922V38.4H23.1376ZM33.5602 51H28.5022V50.478C28.7662 50.382 29.0302 50.298 29.2942 50.226C29.5702 50.154 29.8642 50.094 30.1762 50.046V39.336H27.4222L26.4682 41.91H26.0182C25.9822 41.67 25.9522 41.4 25.9282 41.1C25.9042 40.788 25.8802 40.476 25.8562 40.164C25.8442 39.84 25.8322 39.528 25.8202 39.228C25.8082 38.916 25.8022 38.64 25.8022 38.4H36.2602C36.2602 38.64 36.2542 38.91 36.2422 39.21C36.2302 39.51 36.2122 39.822 36.1882 40.146C36.1762 40.458 36.1582 40.77 36.1342 41.082C36.1222 41.382 36.0982 41.658 36.0622 41.91H35.5942L34.6582 39.336H31.9042V50.046C32.2162 50.106 32.5042 50.166 32.7682 50.226C33.0442 50.286 33.3082 50.37 33.5602 50.478V51ZM51.8327 39.372C51.5807 39.336 51.3287 39.282 51.0767 39.21C50.8247 39.126 50.5607 39.03 50.2847 38.922V38.4H54.3167V38.922C53.9087 39.102 53.4767 39.252 53.0207 39.372L50.0147 51L48.8987 51.216L46.0007 41.424L43.1567 51L42.0587 51.216L38.8727 39.372C38.6327 39.312 38.3987 39.246 38.1707 39.174C37.9427 39.102 37.7207 39.018 37.5047 38.922V38.4H42.1847V38.922C41.9567 39.006 41.7227 39.09 41.4827 39.174C41.2427 39.246 40.9847 39.312 40.7087 39.372L42.4907 46.626L42.8867 48.966H42.9227L43.5527 46.59L45.9827 38.4H46.5947L49.2047 46.59L49.7267 48.93H49.7627L50.1767 46.554L51.8327 39.372ZM55.5833 44.7C55.5833 43.764 55.7093 42.9 55.9613 42.108C56.2253 41.304 56.5973 40.614 57.0773 40.038C57.5693 39.45 58.1693 38.994 58.8773 38.67C59.5853 38.346 60.3893 38.184 61.2893 38.184C62.1893 38.184 62.9933 38.346 63.7013 38.67C64.4093 38.994 65.0033 39.45 65.4833 40.038C65.9753 40.614 66.3473 41.304 66.5993 42.108C66.8633 42.9 66.9953 43.764 66.9953 44.7C66.9953 45.636 66.8633 46.506 66.5993 47.31C66.3473 48.102 65.9753 48.792 65.4833 49.38C65.0033 49.956 64.4093 50.406 63.7013 50.73C62.9933 51.054 62.1893 51.216 61.2893 51.216C60.3893 51.216 59.5853 51.054 58.8773 50.73C58.1693 50.406 57.5693 49.956 57.0773 49.38C56.5973 48.792 56.2253 48.102 55.9613 47.31C55.7093 46.506 55.5833 45.636 55.5833 44.7ZM57.5093 44.7C57.5093 45.468 57.5873 46.194 57.7433 46.878C57.9113 47.55 58.1573 48.138 58.4813 48.642C58.8053 49.146 59.2133 49.548 59.7053 49.848C60.1973 50.136 60.7793 50.28 61.4513 50.28C62.0633 50.28 62.5973 50.136 63.0533 49.848C63.5093 49.548 63.8813 49.146 64.1693 48.642C64.4693 48.138 64.6913 47.55 64.8353 46.878C64.9913 46.194 65.0693 45.468 65.0693 44.7C65.0693 43.932 64.9913 43.212 64.8353 42.54C64.6793 41.856 64.4393 41.262 64.1153 40.758C63.7913 40.254 63.3833 39.858 62.8913 39.57C62.3993 39.27 61.8173 39.12 61.1453 39.12C60.4853 39.12 59.9213 39.27 59.4533 39.57C58.9973 39.858 58.6253 40.254 58.3373 40.758C58.0493 41.262 57.8393 41.856 57.7073 42.54C57.5753 43.212 57.5093 43.932 57.5093 44.7ZM72.5795 50.046C72.8555 50.106 73.1195 50.172 73.3715 50.244C73.6235 50.304 73.8695 50.382 74.1095 50.478V51H69.3755V50.478C69.6395 50.358 69.8915 50.268 70.1315 50.208C70.3715 50.148 70.6115 50.094 70.8515 50.046V39.372C70.5395 39.312 70.2635 39.246 70.0235 39.174C69.7835 39.09 69.5675 39.006 69.3755 38.922V38.4H70.9595C71.4395 38.4 71.9615 38.376 72.5255 38.328C73.1015 38.28 73.6595 38.256 74.1995 38.256C74.7875 38.256 75.3335 38.322 75.8375 38.454C76.3535 38.586 76.7975 38.796 77.1695 39.084C77.5415 39.372 77.8295 39.738 78.0335 40.182C78.2495 40.626 78.3575 41.16 78.3575 41.784C78.3575 42.66 78.1235 43.386 77.6555 43.962C77.1995 44.538 76.5755 44.952 75.7835 45.204C76.2995 46.02 76.8395 46.83 77.4035 47.634C77.9675 48.438 78.5555 49.236 79.1675 50.028L80.1395 50.55V51H77.9615L77.2775 50.496C76.9415 50.076 76.6355 49.668 76.3595 49.272C76.0835 48.864 75.8255 48.456 75.5855 48.048C75.3455 47.628 75.1175 47.208 74.9015 46.788C74.6975 46.356 74.4875 45.9 74.2715 45.42H72.5795V50.046ZM73.8035 39.192C73.5155 39.192 73.2755 39.198 73.0835 39.21C72.9035 39.222 72.7355 39.246 72.5795 39.282V44.664H73.8755C74.7035 44.664 75.3575 44.4 75.8375 43.872C76.3295 43.344 76.5755 42.648 76.5755 41.784C76.5755 40.896 76.3175 40.242 75.8015 39.822C75.2855 39.402 74.6195 39.192 73.8035 39.192ZM88.0905 38.4H92.0685V38.922C91.8285 39.03 91.5945 39.12 91.3665 39.192C91.1385 39.264 90.9165 39.324 90.7005 39.372L87.0825 44.16C87.3825 44.556 87.7245 45 88.1085 45.492C88.5045 45.984 88.9125 46.494 89.3325 47.022C89.7645 47.538 90.2025 48.066 90.6465 48.606C91.1025 49.134 91.5465 49.638 91.9785 50.118L92.8425 50.55V51H90.5925L89.9805 50.568C89.2725 49.74 88.5645 48.846 87.8565 47.886C87.1605 46.926 86.4825 45.954 85.8225 44.97H84.9405V50.046C85.4925 50.142 85.9425 50.286 86.2905 50.478V51H81.7365V50.478C82.2165 50.286 82.7085 50.142 83.2125 50.046V39.372C82.6725 39.3 82.1805 39.15 81.7365 38.922V38.4H86.2905V38.922C86.0985 39.006 85.8885 39.09 85.6605 39.174C85.4325 39.246 85.1925 39.312 84.9405 39.372V44.358L86.0205 44.106L89.3865 39.372C89.1465 39.312 88.9185 39.246 88.7025 39.174C88.4865 39.102 88.2825 39.018 88.0905 38.922V38.4ZM99.2232 51H94.6152V50.478C95.0832 50.262 95.5632 50.118 96.0552 50.046V39.372C95.8152 39.324 95.5752 39.264 95.3352 39.192C95.0952 39.108 94.8552 39.018 94.6152 38.922V38.4H99.2232V38.922C99.0072 39.018 98.7732 39.108 98.5212 39.192C98.2692 39.264 98.0232 39.324 97.7832 39.372V50.046C98.0352 50.094 98.2872 50.154 98.5392 50.226C98.7912 50.298 99.0192 50.382 99.2232 50.478V51ZM109.745 38.4H113.633V38.922C113.129 39.258 112.637 39.498 112.157 39.642V51.216H111.131L104.597 41.298L103.895 39.894H103.841L104.003 41.298V49.848C104.495 49.98 104.957 50.19 105.389 50.478V51H101.501V50.478C101.717 50.346 101.945 50.232 102.185 50.136C102.437 50.028 102.701 49.932 102.977 49.848V39.534C102.737 39.438 102.497 39.336 102.257 39.228C102.029 39.12 101.813 39.012 101.609 38.904V38.4H104.651L110.321 46.95L111.149 48.498H111.221L111.131 46.95V39.642C110.879 39.534 110.633 39.42 110.393 39.3C110.165 39.18 109.949 39.054 109.745 38.922V38.4ZM126.025 50.136C125.797 50.268 125.527 50.4 125.215 50.532C124.915 50.652 124.591 50.766 124.243 50.874C123.907 50.97 123.565 51.048 123.217 51.108C122.881 51.18 122.563 51.216 122.263 51.216C121.303 51.216 120.439 51.09 119.671 50.838C118.903 50.574 118.249 50.178 117.709 49.65C117.169 49.11 116.749 48.432 116.449 47.616C116.161 46.8 116.017 45.828 116.017 44.7C116.017 43.524 116.185 42.522 116.521 41.694C116.869 40.866 117.325 40.194 117.889 39.678C118.465 39.15 119.113 38.772 119.833 38.544C120.565 38.304 121.309 38.184 122.065 38.184C122.857 38.184 123.523 38.238 124.063 38.346C124.615 38.442 125.095 38.592 125.503 38.796C125.503 38.976 125.497 39.198 125.485 39.462C125.473 39.726 125.455 40.002 125.431 40.29C125.407 40.578 125.377 40.866 125.341 41.154C125.305 41.43 125.269 41.676 125.233 41.892H124.765L123.829 39.3C123.697 39.228 123.475 39.18 123.163 39.156C122.851 39.132 122.545 39.12 122.245 39.12C121.645 39.12 121.075 39.234 120.535 39.462C119.995 39.678 119.521 40.02 119.113 40.488C118.717 40.944 118.399 41.526 118.159 42.234C117.919 42.93 117.799 43.752 117.799 44.7C117.799 45.552 117.913 46.32 118.141 47.004C118.381 47.688 118.705 48.276 119.113 48.768C119.533 49.248 120.019 49.62 120.571 49.884C121.135 50.148 121.741 50.28 122.389 50.28C122.629 50.28 122.863 50.256 123.091 50.208C123.319 50.16 123.529 50.106 123.721 50.046C123.913 49.974 124.069 49.902 124.189 49.83C124.321 49.758 124.411 49.698 124.459 49.65V46.014C124.147 45.99 123.847 45.936 123.559 45.852C123.283 45.768 123.007 45.678 122.731 45.582V45.06H127.141V45.582C127.021 45.666 126.877 45.744 126.709 45.816C126.541 45.888 126.313 45.954 126.025 46.014V50.136ZM136.332 49.758C136.476 49.902 136.662 50.028 136.89 50.136C137.118 50.232 137.46 50.28 137.916 50.28C138.3 50.28 138.66 50.232 138.996 50.136C139.332 50.028 139.62 49.878 139.86 49.686C140.112 49.482 140.31 49.242 140.454 48.966C140.598 48.678 140.67 48.354 140.67 47.994C140.67 47.514 140.52 47.112 140.22 46.788C139.932 46.464 139.566 46.176 139.122 45.924C138.69 45.672 138.216 45.426 137.7 45.186C137.184 44.946 136.704 44.664 136.26 44.34C135.828 44.004 135.462 43.608 135.162 43.152C134.874 42.684 134.73 42.102 134.73 41.406C134.73 40.902 134.82 40.452 135 40.056C135.18 39.66 135.432 39.324 135.756 39.048C136.092 38.772 136.488 38.562 136.944 38.418C137.4 38.262 137.91 38.184 138.474 38.184C139.206 38.184 139.872 38.244 140.472 38.364C141.084 38.472 141.564 38.61 141.912 38.778C141.912 38.982 141.894 39.222 141.858 39.498C141.834 39.762 141.798 40.038 141.75 40.326C141.714 40.614 141.672 40.896 141.624 41.172C141.576 41.436 141.528 41.67 141.48 41.874H141.012L140.292 39.408C140.076 39.312 139.8 39.24 139.464 39.192C139.14 39.144 138.792 39.12 138.42 39.12C137.808 39.12 137.316 39.294 136.944 39.642C136.572 39.978 136.386 40.452 136.386 41.064C136.386 41.556 136.53 41.97 136.818 42.306C137.118 42.642 137.49 42.942 137.934 43.206C138.378 43.47 138.852 43.728 139.356 43.98C139.872 44.22 140.352 44.502 140.796 44.826C141.24 45.15 141.606 45.534 141.894 45.978C142.194 46.422 142.344 46.974 142.344 47.634C142.344 48.174 142.242 48.666 142.038 49.11C141.846 49.554 141.564 49.932 141.192 50.244C140.82 50.556 140.364 50.796 139.824 50.964C139.284 51.132 138.672 51.216 137.988 51.216C137.232 51.216 136.554 51.126 135.954 50.946C135.354 50.766 134.928 50.574 134.676 50.37C134.688 50.166 134.706 49.92 134.73 49.632C134.766 49.344 134.802 49.05 134.838 48.75C134.886 48.438 134.934 48.138 134.982 47.85C135.03 47.562 135.078 47.316 135.126 47.112H135.594L136.332 49.758ZM159.249 51H154.785V50.478C155.025 50.382 155.265 50.304 155.505 50.244C155.745 50.172 155.991 50.106 156.243 50.046V41.946L156.315 39.84H156.171L155.577 41.766L151.887 51H151.419L147.909 41.766L147.261 39.66H147.099L147.117 41.946V50.046C147.345 50.094 147.573 50.154 147.801 50.226C148.029 50.298 148.257 50.382 148.485 50.478V51H144.723V50.478C144.951 50.382 145.185 50.298 145.425 50.226C145.677 50.142 145.929 50.076 146.181 50.028V39.372C145.929 39.324 145.677 39.264 145.425 39.192C145.185 39.108 144.945 39.018 144.705 38.922V38.4H148.395L151.527 46.626L152.139 48.48H152.157L152.769 46.59L156.009 38.4H159.267V38.922C159.051 39.018 158.829 39.108 158.601 39.192C158.373 39.264 158.139 39.324 157.899 39.372V50.064C158.151 50.112 158.385 50.172 158.601 50.244C158.829 50.304 159.045 50.382 159.249 50.478V51ZM164.688 51H160.692V50.478C161.124 50.286 161.556 50.142 161.988 50.046L166.542 38.184H167.064L171.618 50.046C171.858 50.094 172.092 50.148 172.32 50.208C172.56 50.268 172.782 50.358 172.986 50.478V51H168.378V50.478C168.618 50.382 168.864 50.298 169.116 50.226C169.368 50.154 169.614 50.094 169.854 50.046L168.63 46.752H164.328L163.14 50.046C163.644 50.118 164.16 50.262 164.688 50.478V51ZM164.688 45.816H168.324L166.902 42L166.56 40.452H166.524L166.074 42.036L164.688 45.816ZM177.605 50.046C177.881 50.106 178.145 50.172 178.397 50.244C178.649 50.304 178.895 50.382 179.135 50.478V51H174.401V50.478C174.665 50.358 174.917 50.268 175.157 50.208C175.397 50.148 175.637 50.094 175.877 50.046V39.372C175.565 39.312 175.289 39.246 175.049 39.174C174.809 39.09 174.593 39.006 174.401 38.922V38.4H175.985C176.465 38.4 176.987 38.376 177.551 38.328C178.127 38.28 178.685 38.256 179.225 38.256C179.813 38.256 180.359 38.322 180.863 38.454C181.379 38.586 181.823 38.796 182.195 39.084C182.567 39.372 182.855 39.738 183.059 40.182C183.275 40.626 183.383 41.16 183.383 41.784C183.383 42.66 183.149 43.386 182.681 43.962C182.225 44.538 181.601 44.952 180.809 45.204C181.325 46.02 181.865 46.83 182.429 47.634C182.993 48.438 183.581 49.236 184.193 50.028L185.165 50.55V51H182.987L182.303 50.496C181.967 50.076 181.661 49.668 181.385 49.272C181.109 48.864 180.851 48.456 180.611 48.048C180.371 47.628 180.143 47.208 179.927 46.788C179.723 46.356 179.513 45.9 179.297 45.42H177.605V50.046ZM178.829 39.192C178.541 39.192 178.301 39.198 178.109 39.21C177.929 39.222 177.761 39.246 177.605 39.282V44.664H178.901C179.729 44.664 180.383 44.4 180.863 43.872C181.355 43.344 181.601 42.648 181.601 41.784C181.601 40.896 181.343 40.242 180.827 39.822C180.311 39.402 179.645 39.192 178.829 39.192ZM193.461 51H188.403V50.478C188.667 50.382 188.931 50.298 189.195 50.226C189.471 50.154 189.765 50.094 190.077 50.046V39.336H187.323L186.369 41.91H185.919C185.883 41.67 185.853 41.4 185.829 41.1C185.805 40.788 185.781 40.476 185.757 40.164C185.745 39.84 185.733 39.528 185.721 39.228C185.709 38.916 185.703 38.64 185.703 38.4H196.161C196.161 38.64 196.155 38.91 196.143 39.21C196.131 39.51 196.113 39.822 196.089 40.146C196.077 40.458 196.059 40.77 196.035 41.082C196.023 41.382 195.999 41.658 195.963 41.91H195.495L194.559 39.336H191.805V50.046C192.117 50.106 192.405 50.166 192.669 50.226C192.945 50.286 193.209 50.37 193.461 50.478V51ZM206.46 38.4C206.448 38.88 206.424 39.366 206.388 39.858C206.364 40.338 206.322 40.824 206.262 41.316H205.794L205.056 39.336H201.132V44.106H204.066L204.768 42.774H205.218C205.29 43.962 205.29 45.174 205.218 46.41H204.768L204.066 45.042H201.132V50.064H205.272L206.154 47.904H206.604C206.688 48.408 206.748 48.918 206.784 49.434C206.82 49.95 206.826 50.472 206.802 51H197.928V50.478C198.348 50.286 198.84 50.142 199.404 50.046V39.372C199.164 39.324 198.918 39.264 198.666 39.192C198.414 39.108 198.168 39.018 197.928 38.922V38.4H206.46ZM212.508 50.046C212.784 50.106 213.048 50.172 213.3 50.244C213.552 50.304 213.798 50.382 214.038 50.478V51H209.304V50.478C209.568 50.358 209.82 50.268 210.06 50.208C210.3 50.148 210.54 50.094 210.78 50.046V39.372C210.468 39.312 210.192 39.246 209.952 39.174C209.712 39.09 209.496 39.006 209.304 38.922V38.4H210.888C211.368 38.4 211.89 38.376 212.454 38.328C213.03 38.28 213.588 38.256 214.128 38.256C214.716 38.256 215.262 38.322 215.766 38.454C216.282 38.586 216.726 38.796 217.098 39.084C217.47 39.372 217.758 39.738 217.962 40.182C218.178 40.626 218.286 41.16 218.286 41.784C218.286 42.66 218.052 43.386 217.584 43.962C217.128 44.538 216.504 44.952 215.712 45.204C216.228 46.02 216.768 46.83 217.332 47.634C217.896 48.438 218.484 49.236 219.096 50.028L220.068 50.55V51H217.89L217.206 50.496C216.87 50.076 216.564 49.668 216.288 49.272C216.012 48.864 215.754 48.456 215.514 48.048C215.274 47.628 215.046 47.208 214.83 46.788C214.626 46.356 214.416 45.9 214.2 45.42H212.508V50.046ZM213.732 39.192C213.444 39.192 213.204 39.198 213.012 39.21C212.832 39.222 212.664 39.246 212.508 39.282V44.664H213.804C214.632 44.664 215.286 44.4 215.766 43.872C216.258 43.344 216.504 42.648 216.504 41.784C216.504 40.896 216.246 40.242 215.73 39.822C215.214 39.402 214.548 39.192 213.732 39.192Z"
                    fill="white"
                  />
                </svg>